:version 1.10
:name ASF
:units
  mass 1
  length 1
  angle deg
:documentation
  ASF file generated by Kaydara
:root
  axis xyz
  order  tx ty tz rx ry rz
  position 0 0 0
  orientation 0 0 0
:bonedata
  begin
    id 1
    name RightUpLegDummy
    direction -0.65628 -0.754516 0.00165102
    length 4.76918
    axis 0 0 0 xyz
  end
  begin
    id 2
    name RightUpLeg
    direction -0.145584 -0.923362 0.355256
    length 17.9961
    axis -24.7611 -13.1006 1.78531 xyz
    dof rx ry rz
  end
  begin
    id 3
    name RightLeg
    direction 0.263379 0.172355 -0.949171
    length 13.3386
    axis 89.6202 -21.1929 12.3855 xyz
    dof rx ry rz
  end
  begin
    id 4
    name RightFoot
    direction 0.224283 -0.968777 -0.105675
    length 5.86697
    axis 56.995 -39.6905 17.3365 xyz
    dof rx ry rz
  end
  begin
    id 5
    name RightToes
    direction -0.0806345 -0.9037 0.420506
    length 4.75197
    axis 146.825 -39.7828 17.6019 xyz
    dof rx ry rz
  end
  begin
    id 6
    name SpineDummy
    direction -3.39852e-014 1 9.33296e-014
    length 8.13779
    axis 0 0 0 xyz
  end
  begin
    id 7
    name Spine
    direction -0.156609 0.733703 0.661176
    length 7.14978
    axis 41.2365 5.68757 17.0844 xyz
    dof rx ry rz
  end
  begin
    id 8
    name Spine1
    direction 0 0 0
    length 0
    axis 42.8809 47.8308 -3.36039 xyz
    dof rx ry rz
  end
  begin
    id 9
    name HEadDummy
    direction 0.546431 0.701947 0.456819
    length 3.55512
    axis 42.8809 47.8308 -3.36039 xyz
  end
  begin
    id 10
    name HEad
    direction 0.23444 0.828559 0.508457
    length 7.35827
    axis 51.1864 49.2662 27.4903 xyz
    dof rx ry rz
  end
  begin
    id 11
    name LeftShoulder1Dummy
    direction 0.431183 0.475873 -0.766568
    length 2.49352
    axis 42.8809 47.8308 -3.36039 xyz
  end
  begin
    id 12
    name LeftShoulder1
    direction 0.268187 -0.383402 -0.883786
    length 4.48604
    axis -119.517 0.106469 35.1736 xyz
    dof rx ry rz
  end
  begin
    id 13
    name LeftArm
    direction 0.380567 -0.703221 -0.600541
    length 10.1142
    axis -5.41825 36.2925 7.8293 xyz
    dof rx ry rz
  end
  begin
    id 14
    name LeftForeArm
    direction 0.541071 -0.732356 -0.413396
    length 9.39839
    axis 4.65387 33.7604 7.81644 xyz
    dof rx ry rz
  end
  begin
    id 15
    name LeftHand
    direction 0.847511 -0.389379 -0.360707
    length 3.66142
    axis 7.65593 21.1436 -24.6758 xyz
    dof rx ry rz
  end
  begin
    id 16
    name RightShoulderDummy
    direction -0.692546 0.541855 0.476208
    length 2.49352
    axis 42.8809 47.8308 -3.36039 xyz
  end
  begin
    id 17
    name RightShoulder
    direction -0.870808 -0.316653 0.376065
    length 4.48602
    axis 141.571 51.133 -100.254 xyz
    dof rx ry rz
  end
  begin
    id 18
    name RightArm
    direction 0.366897 -0.87275 0.322015
    length 10.1142
    axis 92.3258 71.2036 138.917 xyz
    dof rx ry rz
  end
  begin
    id 19
    name RightForeArm
    direction 0.702487 -0.694568 0.155197
    length 9.39835
    axis 153.863 41.5092 -176.604 xyz
    dof rx ry rz
  end
  begin
    id 20
    name RightHand
    direction 0.79502 -0.601276 0.0800636
    length 3.66142
    axis 154.247 4.59222 142.9 xyz
    dof rx ry rz
  end
  begin
    id 21
    name LeftUpLegDummy
    direction 0.65628 -0.754516 0.00165102
    length 4.76919
    axis 0 0 0 xyz
  end
  begin
    id 22
    name LeftUpLeg
    direction -0.1277 -0.689368 0.713067
    length 17.9961
    axis -48.3385 -17.8675 0.791927 xyz
    dof rx ry rz
  end
  begin
    id 23
    name LeftLeg
    direction 0.109849 -0.991246 -0.0732378
    length 13.3386
    axis -2.05791 -7.30784 1.72042 xyz
    dof rx ry rz
  end
  begin
    id 24
    name LeftFoot
    direction 0.0448355 -0.272614 0.961078
    length 5.86697
    axis -18.7733 -7.89606 10.2113 xyz
    dof rx ry rz
  end
  begin
    id 25
    name LeftToes
    direction -0.18506 0.293668 0.937823
    length 4.75197
    axis 71.2267 -7.89606 10.2113 xyz
    dof rx ry rz
  end
:hierarchy
  begin
    root RightUpLegDummy SpineDummy LeftUpLegDummy
    RightUpLegDummy RightUpLeg
    RightUpLeg RightLeg
    RightLeg RightFoot
    RightFoot RightToes
    SpineDummy Spine
    Spine Spine1
    Spine1 HEadDummy LeftShoulder1Dummy RightShoulderDummy
    HEadDummy HEad
    LeftShoulder1Dummy LeftShoulder1
    LeftShoulder1 LeftArm
    LeftArm LeftForeArm
    LeftForeArm LeftHand
    RightShoulderDummy RightShoulder
    RightShoulder RightArm
    RightArm RightForeArm
    RightForeArm RightHand
    LeftUpLegDummy LeftUpLeg
    LeftUpLeg LeftLeg
    LeftLeg LeftFoot
    LeftFoot LeftToes
  end

:SAMPLES-PER-SECOND 30
:FULLY-SPECIFIED
:DEGREES
381
root  2.94821 37.5947 9.72953 -9.64797 -15.7038 4.93522
RightUpLeg  -5.93194 16.9784 0.986086
RightLeg  -89.0033 -12.4843 1.60023
RightFoot  29.0244 2.92988 -14.71
RightToes  -1.27222e-014 -6.36111e-015 6.36111e-015
Spine  -32.5161 -21.3336 -12.4224
Spine1  4.03203 -16.42 48.7737
HEad  0.905418 10.9745 -17.8106
LeftShoulder1  6.36111e-015 -1.33558e-015 6.49777e-015
LeftArm  13.5334 -13.2499 -11.3547
LeftForeArm  -22.3802 -46.8855 14.8991
LeftHand  -0.428529 0.654666 -7.68045
RightShoulder  -4.77083e-015 -6.36111e-015 -3.18055e-015
RightArm  62.4048 -10.3549 -55.3441
RightForeArm  -33.0919 10.6814 -26.5228
RightHand  0.625244 0.277625 -5.23451
LeftUpLeg  58.3917 20.2948 15.4699
LeftLeg  -8.2198 -11.2891 -0.979539
LeftFoot  -7.80851 3.44222 -15.1793
LeftToes  9.54166e-015 4.2066e-011 -8.07781e-011
382
root  2.76206 37.3619 10.8279 -9.44546 -16.8621 4.67754
RightUpLeg  -5.88632 20.0542 0.758021
RightLeg  -94.1183 -11.3974 -4.53284
RightFoot  32.1068 0.975461 -12.8429
RightToes  -1.27222e-014 -6.36111e-015 6.36111e-015
Spine  -33.3979 -20.8245 -12.4787
Spine1  5.0991 -15.9178 49.383
HEad  0.244563 11.2259 -18.3505
LeftShoulder1  6.36111e-015 -1.33558e-015 6.49777e-015
LeftArm  11.522 -13.3894 -10.2382
LeftForeArm  -14.9751 -41.6098 8.44599
LeftHand  -0.0327022 1.64229 -6.80831
RightShoulder  -4.77083e-015 -6.36111e-015 -3.18055e-015
RightArm  60.2531 -6.74671 -48.6074
RightForeArm  -23.8015 6.64976 -19.4255
RightHand  0.657877 0.420101 -5.7363
LeftUpLeg  63.1074 20.4482 14.1507
LeftLeg  -14.5065 -9.26555 -0.889479
LeftFoot  -9.94513 2.84905 -13.7074
LeftToes  9.54166e-015 4.2066e-011 -8.07781e-011
383
root  2.37293 37.1495 11.985 -8.74123 -17.4945 3.41345
RightUpLeg  -6.36843 22.2099 2.45333
RightLeg  -92.4609 -11.2214 -7.58386
RightFoot  33.2676 0.279319 -12.2493
RightToes  -1.27222e-014 -6.36111e-015 6.36111e-015
Spine  -33.7619 -20.6912 -12.8147
Spine1  6.27207 -15.7802 51.6517
HEad  -0.382352 12.4341 -19.8596
LeftShoulder1  6.36111e-015 -1.33558e-015 6.49777e-015
LeftArm  9.54404 -9.84791 -9.66566
LeftForeArm  -8.9433 -37.2483 4.32557
LeftHand  0.474974 3.04008 -6.30226
RightShoulder  -4.77083e-015 -6.36111e-015 -3.18055e-015
RightArm  57.5658 -5.60993 -42.0031
RightForeArm  -16.1476 0.375492 -12.9771
RightHand  0.720406 -0.042052 -5.42268
LeftUpLeg  66.2137 19.4373 13.6041
LeftLeg  -17.6074 -6.47092 -1.37311
LeftFoot  -10.9655 2.67334 -13.4432
LeftToes  9.54166e-015 4.2066e-011 -8.07781e-011
384
root  1.76142 36.8951 13.177 -7.92175 -17.1038 1.27587
RightUpLeg  -6.54422 22.6155 5.57636
RightLeg  -86.6904 -11.2694 -6.37901
RightFoot  32.0396 1.54408 -13.5254
RightToes  -1.27222e-014 -6.36111e-015 6.36111e-015
Spine  -31.6323 -21.0157 -13.1976
Spine1  5.44844 -16.053 54.8509
HEad  -1.01784 14.3302 -21.8788
LeftShoulder1  6.36111e-015 -1.33558e-015 6.49777e-015
LeftArm  9.49193 -3.20955 -9.90377
LeftForeArm  -5.53994 -34.7872 2.38585
LeftHand  1.13095 4.94941 -6.06433
RightShoulder  -4.77083e-015 -6.36111e-015 -3.18055e-015
RightArm  53.5538 -8.82424 -40.7193
RightForeArm  -12.3179 -3.68886 -9.90357
RightHand  0.438135 0.173324 -3.60959
LeftUpLeg  66.7237 16.6039 14.4005
LeftLeg  -13.7948 -6.31758 -1.27685
LeftFoot  -11.0895 3.40477 -17.251
LeftToes  9.54166e-015 4.2066e-011 -8.07781e-011
385
root  1.07087 36.65 14.3942 -7.08894 -15.1882 -1.25384
RightUpLeg  -6.12531 21.5963 8.51894
RightLeg  -80.9722 -11.9481 -3.67443
RightFoot  29.5707 2.45898 -14.2008
RightToes  -1.27222e-014 -6.36111e-015 6.36111e-015
Spine  -28.7536 -20.9658 -12.1635
Spine1  4.37156 -16.6544 57.434
HEad  -2.81048 15.4735 -24.0641
LeftShoulder1  6.36111e-015 -1.33558e-015 6.49777e-015
LeftArm  12.8523 1.65026 -11.7662
LeftForeArm  -4.89477 -32.7083 1.61332
LeftHand  1.55615 6.31751 -6.24282
RightShoulder  -4.77083e-015 -6.36111e-015 -3.18055e-015
RightArm  50.7493 -15.6224 -44.7254
RightForeArm  -14.1661 -3.33378 -10.6154
RightHand  0.0122661 1.33473 -2.02926
LeftUpLeg  63.3039 12.7789 15.3623
LeftLeg  -2.73708 -5.79408 -0.97943
LeftFoot  -6.15508 4.82329 -19.9344
LeftToes  9.54166e-015 4.2066e-011 -8.07781e-011
386
root  0.443985 36.4616 15.6132 -6.08921 -12.1582 -3.98832
RightUpLeg  -5.6826 19.2067 10.7213
RightLeg  -76.8713 -12.8774 -1.52624
RightFoot  26.7732 2.50174 -13.7192
RightToes  -1.27222e-014 -6.36111e-015 6.36111e-015
Spine  -27.8016 -19.5753 -8.87398
Spine1  5.52907 -17.147 59.5155
HEad  -6.09497 14.864 -26.4504
LeftShoulder1  6.36111e-015 -1.33558e-015 6.49777e-015
LeftArm  18.8974 2.14204 -16.6678
LeftForeArm  -5.37622 -30.8467 1.27677
LeftHand  1.15873 5.65601 -7.57938
RightShoulder  -4.77083e-015 -6.36111e-015 -3.18055e-015
RightArm  52.1128 -21.2601 -46.8922
RightForeArm  -22.7229 -2.28692 -13.4808
RightHand  -0.275558 2.86037 -2.08427
LeftUpLeg  56.2153 8.88378 15.4124
LeftLeg  11.2912 -1.84285 0.573576
LeftFoot  6.40612 5.9185 -16.4913
LeftToes  9.54166e-015 4.2066e-011 -8.07781e-011
387
root  -0.128171 36.183 16.8498 -5.55492 -9.65742 -6.2044
RightUpLeg  -5.35735 16.164 12.4294
RightLeg  -72.8459 -13.9045 0.0276724
RightFoot  23.49 2.86599 -13.5656
RightToes  -1.27222e-014 -6.36111e-015 6.36111e-015
Spine  -28.1218 -17.402 -5.71879
Spine1  8.14224 -16.8694 61.4153
HEad  -9.61648 13.4714 -28.8452
LeftShoulder1  6.36111e-015 -1.33558e-015 6.49777e-015
LeftArm  25.2849 1.69536 -23.9515
LeftForeArm  -4.94377 -32.3868 1.54456
LeftHand  0.0918596 2.94713 -9.54243
RightShoulder  -4.77083e-015 -6.36111e-015 -3.18055e-015
RightArm  54.879 -24.1062 -45.2978
RightForeArm  -34.1844 0.00033034 -17.6214
RightHand  -0.392044 4.09527 -3.39812
LeftUpLeg  48.789 6.29286 15.5802
LeftLeg  23.8739 2.58947 4.31253
LeftFoot  16.8953 5.20872 -11.2936
LeftToes  9.54166e-015 4.2066e-011 -8.07781e-011
388
root  -0.692793 36.1352 18.1871 -6.05281 -8.74736 -7.207
RightUpLeg  -2.98364 14.0603 13.8149
RightLeg  -70.5413 -14.6898 1.06912
RightFoot  20.3979 3.80144 -14.333
RightToes  -1.27222e-014 -6.36111e-015 6.36111e-015
Spine  -28.208 -15.6376 -4.81813
Spine1  9.97122 -15.907 61.9448
HEad  -11.6369 12.6025 -30.1904
LeftShoulder1  6.36111e-015 -1.33558e-015 6.49777e-015
LeftArm  29.7623 3.58506 -31.2759
LeftForeArm  -2.27516 -37.6291 2.03959
LeftHand  -0.830074 0.160515 -10.683
RightShoulder  -4.77083e-015 -6.36111e-015 -3.18055e-015
RightArm  56.6166 -26.348 -42.0529
RightForeArm  -46.1198 3.88731 -23.8069
RightHand  -0.498515 4.91013 -4.1102
LeftUpLeg  43.6566 6.3712 16.2969
LeftLeg  32.5939 4.84634 7.98469
LeftFoot  16.9584 3.67461 -7.99466
LeftToes  9.54166e-015 4.2066e-011 -8.07781e-011
